<svg id="Capa_1" data-name="Capa 1" xmlns="http://www.w3.org/2000/svg" viewBox="0 0 800 500"><defs><style>.cls-1{fill:#676768;}.cls-2{fill:#8e8f90;}.cls-3{fill:#f49422;}</style></defs><title>logo_makro_creativo_web</title><path class="cls-1" d="M139.83,134.08c7.06-16.14,13.59-31,20.09-45.93,7-16,13.83-32,21-47.94A6.39,6.39,0,0,1,185.45,37q21.45-.39,42.91,0A5.08,5.08,0,0,1,232,40.15c3.84,24.45,7.42,48.94,11.11,73.41q7.35,48.78,14.76,97.54c.24,1.59.26,3.22.4,5.12H208.63q-6.87-50.35-13.7-100.52l-1.15-.33c-2,4.19-4,8.35-5.95,12.56q-19.46,42.34-38.8,84.74c-1.39,3.06-3.26,3.67-6.42,4-7.48.89-11.25-1.63-14.42-8.88-12.89-29.53-26.66-58.68-40.12-88a9.47,9.47,0,0,0-3.38-4.31q-6.75,50.2-13.53,100.6H21.08c1.64-11,3.22-21.67,4.82-32.31Q32.22,142,38.55,100.09c3-19.87,6.05-39.74,9-59.62.39-2.63,1.25-3.73,4-3.7,14.31.11,28.62.16,42.92,0,3.15,0,3.86,1.78,4.8,4q18.49,42.76,37,85.51C137.25,128.46,138.29,130.68,139.83,134.08Z"/><path class="cls-1" d="M459.92,219.46c27.62,1.12,52.47,8.83,72,28.53,26.95,27.16,33.51,60.39,23.22,96.33s-35.78,57-71.95,64.07c-37,7.22-71.31.56-98.23-27.66-24.48-25.66-30.26-57.14-21.66-90.84s31-55,64.09-64.74C437.9,222.08,449.06,221.29,459.92,219.46Zm47.35,96.32c.39-27.56-19.62-49.08-47.2-48.9-29.34.2-47.46,21.05-48,47.65-.62,27.81,19.36,49.44,45.78,49.79C486.87,364.71,506.86,345.1,507.27,315.78Z"/><path class="cls-1" d="M195.94,406.16V225.44a21.59,21.59,0,0,1,2.72-.39c27.56.06,55.18-.93,82.66.54,25.86,1.38,46.06,14,55.72,38.91,9.11,23.49,6.28,45.94-11,65.33-3.64,4.08-8.27,7.27-12.71,11.09l35.58,65.26c-1.87.15-3.12.32-4.37.32-15.63,0-31.26-.1-46.89.09-3.38.05-5.07-1.09-6.58-4-8.19-15.8-16.67-31.45-24.87-47.24-1.58-3-3.29-4.6-6.92-4.31-4.29.35-8.64.08-13.52.08v55.05ZM246,308c9.61,0,19,.7,28.21-.19,9.58-.93,15.6-8.13,16.1-17.07.57-10.17-4.48-18.67-14.28-20s-19.87-.3-30-.3Z"/><path class="cls-1" d="M181.64,406.5h-26c-9.58,0-19.16-.14-28.73.08-3.28.08-5.09-1-6.85-3.76-15.52-24.15-31.22-48.2-46.86-72.27-.54-.83-1.14-1.62-2.54-3.6v79.16H21.08V225.46H70v73.77l1,.44c.8-1.06,1.67-2.06,2.38-3.18,13.84-22,27.76-44,41.41-66.18,2.36-3.83,4.79-5.52,9.49-5.41,15.45.34,30.91.12,46.37.12h5.43c-1.49,2.4-2.46,4.07-3.52,5.67-17.29,26.21-34.52,52.46-52,78.54-2,3-1.62,4.76.21,7.44q29,42.4,57.83,84.94C179.51,402.85,180.23,404.17,181.64,406.5Z"/><path class="cls-1" d="M265.47,216.45c2.92-7.61,5.47-14.41,8.12-21.16Q304,117.86,334.41,40.42c1.12-2.84,2.56-3.7,5.48-3.67,13.47.14,26.95.09,40.42,0,2.53,0,4.21.36,5.33,3.15q34.75,87,69.71,173.85a23.15,23.15,0,0,1,.63,2.31,38,38,0,0,1-3.9.4c-15.3,0-30.6-.13-45.9.1-3.59.05-4.92-1.33-5.9-4.44-2.22-7.13-4.92-14.11-7.11-21.25-.87-2.85-2.11-4-5.19-4q-27.94.21-55.89,0c-2.91,0-4.07,1.12-4.88,3.7-2.35,7.44-4.79,14.85-7.51,22.16-.56,1.49-2.48,3.5-3.79,3.52C299.46,216.54,283,216.45,265.47,216.45Zm75.1-68.17h39.21c-6.54-18.29-12.87-36-19.19-53.68l-1.15.27Z"/><path class="cls-2" d="M319.78,442.38A20.07,20.07,0,0,1,340.28,422c11.64,0,20.49,9,20.44,20.72A20.16,20.16,0,0,1,340,463.26C328.34,463.15,319.71,454.24,319.78,442.38Zm4.29.09c-.07,9.92,6.75,17.14,16.14,17.11s16.11-7,16.18-16.77-6.7-17.05-15.84-17.17C331.14,425.51,324.13,432.66,324.07,442.47Z"/><path class="cls-2" d="M91.52,443.86l11,18c-3,.82-5,.44-6.46-2.44-1.93-3.83-4.67-7.27-6.41-11.17-1.86-4.16-4.69-5.17-9.14-4.05v17.87H76.63V422.78c5.71.27,11.22.25,16.67.88,4.75.56,7.73,4.34,8,9.1a9.83,9.83,0,0,1-6.6,10C93.82,443.12,92.86,443.41,91.52,443.86Zm-10.84-17.5v14.36c4.11-.34,8-.36,11.79-1.08,3.32-.64,4.75-3,4.71-6.27s-1.62-5.55-4.93-6.09C88.48,426.66,84.61,426.65,80.68,426.36Z"/><path class="cls-2" d="M196.46,462c-3.12,1.11-4.61-.2-5.68-3.12-2.58-7-2.7-6.94-10-6.94a91,91,0,0,1-9.2-.06c-3-.31-4.54.85-5.3,3.61-.35,1.27-1.07,2.44-1.43,3.71-.8,2.8-2.49,3.76-5.59,2.73,2.27-5.33,4.52-10.65,6.81-16,3-7,6-14.08,9.22-21a3.56,3.56,0,0,1,2.64-1.76,3.47,3.47,0,0,1,2.66,1.69c5.31,12.06,10.48,24.19,15.68,36.3A4.28,4.28,0,0,1,196.46,462Zm-18.58-34.32-8.44,20.4h16.92C183.56,441.3,180.87,434.84,177.88,427.66Z"/><path class="cls-2" d="M124.34,426.55V440h18.71v3.7H124.42v14.85h20.46v3.57H120.47V423.2h23.87v3.35Z"/><path class="cls-2" d="M57.85,428.5l-2.82,2c-8.29-6.51-16.86-6.34-22.81.31s-5.57,18.07.78,24.38c6.15,6.11,15.06,5.72,22.86-1.11l2.51,1.48c-2,5.21-10.15,8.82-18.64,7.29A19.73,19.73,0,0,1,23.9,445.53c-.86-10.73,3.88-19,12.71-22.15C44.8,420.45,53.91,422.57,57.85,428.5Z"/><path class="cls-2" d="M306.3,423.46c-2.25,5.94-4.48,11.85-6.74,17.74-2.45,6.4-4.88,12.82-7.48,19.16a3.5,3.5,0,0,1-2.55,1.78,3.46,3.46,0,0,1-2.83-1.45c-4.76-12.2-9.35-24.47-14-36.73-.07-.17,0-.39.06-.61,2.58-1,4-.25,5,2.51,3.25,9.17,6.73,18.25,10.14,27.36.35.95.79,1.87,1.49,3.53,1.64-4.25,3.06-7.89,4.43-11.54,2.41-6.43,4.88-12.83,7.12-19.31C301.93,423.21,303.38,422.34,306.3,423.46Z"/><path class="cls-2" d="M222.52,426.58v35.48h-4.07V426.71H205.59v-3.48h29.67v3.35Z"/><path class="cls-2" d="M256.15,462.11h-3.81V423.49c3.78-.9,3.94-.78,4,2.85q0,16.26,0,32.51C256.29,459.85,256.21,460.85,256.15,462.11Z"/><path class="cls-3" d="M702.73,345.92c3.35-17.36-1.55-33.18-5.07-49.31,1.25,31.38-7.27,57.77-36.95,75,4.75-9.13,8.93-17.18,13.11-25.23l-1.43-.87L624.83,400.9l-47.65-55.49-1.35.77,12.64,24.76c-13.93-6.91-23.35-17.69-29.58-31.48s-7.11-28.22-6.84-43c-3.72,16-8.13,31.9-5.17,49.12-7-2.09-12-6.47-16.27-11.69-9.9-12-13.63-37-4.08-51.77,8.34-12.86,15.92-26.11,19.6-41.2a2,2,0,0,0-.34-1.7c-1.64,3.35-3.2,6.73-4.92,10A93.78,93.78,0,0,1,514.76,281c-8.56,6.55-10.88,15.05-9.89,25.08a60.84,60.84,0,0,1,.68,9.33c-22.42-47.62-22.83-95.9-3.3-145.65-14.11,6.81-25.76,14.69-31.58,29.33.28-2.92.53-5.85.86-8.78.35-3.14.64-6.29,1.18-9.4,3-17.24,7.31-34.12,14.2-50.25,9.22-21.57,26-32.85,48.85-35.77-5.15-4.53-10.51-5.3-33.72-4.53,2.93-3.22,5.18-6,7.69-8.4,20-19.53,43.06-33.5,70.9-38.08,14.21-2.34,28.51-1.92,42,4.53a5.52,5.52,0,0,0,4.11.11c18.32-8.17,37-7.21,55.58-1.63,24.24,7.31,44.77,20.83,61.82,39.58,1,1.07,1.83,2.27,3.54,4.4-12.39-2.3-23.58-2.27-35,4,11,1.24,20.5,4,28.9,9.88,9.6,6.77,16.87,15.25,21.37,26.3,8.39,20.63,13.26,42.08,15.89,64.11.11.92,0,1.86,0,4.42-6.26-15.19-17.42-23.1-31.52-29.8,19.85,49.95,19.16,98.5-4,146.3.42-2.59,1-5.18,1.23-7.79a57.27,57.27,0,0,0,.38-8c-.2-6.36-1.85-12.44-7-16.48a110.83,110.83,0,0,1-34.3-44.62c2,11.71,6.76,22.26,12.87,32.29q3.64,6,7.26,11.93c9.59,16,5.59,49.54-17.39,60.88C705.45,344.81,704.38,345.21,702.73,345.92Zm.37-196.57c-.91-8.45-1.73-16.53-2.71-24.6a5,5,0,0,0-1.62-3.34c-13.13-8.12-26.17-16.42-39.64-24-5.63-3.15-11.71-1.7-16.56,2.93-3.36,3.22-6.58,6.6-9.91,9.85-5.24,5.14-10.37,5.15-15.71,0-2.75-2.66-5.39-5.42-8.09-8.14-6.7-6.74-12.88-8.07-21.1-3.4-11.11,6.32-21.8,13.39-32.84,19.83-4,2.31-5.9,5.2-6.21,9.75-.49,7.16-1.42,14.28-2.15,21.34,11-2.15,21.22-4.09,31.45-6.18,6.76-1.37,11.09.37,14.79,6.29,5.81,9.27,5.15,28.91-2.18,39.16v-27.8c-5.84,4-11.39,5.33-15.45.61-7.33-8.52-16.36-8.27-26-6.94-2.61.36-3.65,1.37-3.9,4.05-.73,7.61-2,15.17-2.64,22.79-1,11.71,3,20.92,14.08,26.14,6.61,3.12,13.31,6,20.27,9.19h-8.19c-1.14,9.47-2.52,18.67-3.27,27.92-.87,10.69,4.1,20.14,12.52,23.57a43,43,0,0,0,28.36,1.46c8.09-2.27,13.36-7.82,15.58-16,.83-3.07.44-5.57-2.15-8-7.48-7.1-14.73-14.44-21.87-21.88-1.39-1.45-1.87-3.76-2.77-5.67,2-.19,4.1-.87,6-.47,13.41,2.81,26.79,5,40.4,1.27a47,47,0,0,1,8.26-1.66c1.6-.13,3.29.67,4.94,1-.66,1.54-1,3.42-2.06,4.55-6.7,6.94-13.57,13.72-20.4,20.52-6,6-6.8,9.34-1.92,16.31a28.92,28.92,0,0,0,10.34,8.9c8.23,4.13,17.17,3.15,25.88,1.3,9.65-2,16.39-8.24,16.84-17.86.55-11.75-1.18-23.6-1.92-35.29h-8.67c6.92-3.18,14.36-6.32,21.54-10,8.83-4.5,13.3-12,12.73-21.92-.53-9.11-1.81-18.18-2.92-27.25-.13-1-1.25-2.59-2.09-2.72-9.15-1.4-18.22-2.6-25.35,5.7-3.77,4.39-8.18,4.82-13.49,2.29a30.87,30.87,0,0,0-3.69-1.06v25.87c-6.27-11.72-7.77-23.6-2.87-35.75,3-7.52,8.45-10.12,16.28-8.52C682.87,145.58,692.81,147.38,703.1,149.35ZM645.62,311.86c7.27-11.18,4.91-24.84-5.22-33.21-10-8.23-23.69-7.54-32.94,1.66-8.84,8.77-10.36,22.49-3.32,31.23l3.41-7.68c1.48,6.63.8,13.41,5.92,18.9,1.17-5.16,2.19-9.64,3.2-14.13l1.5.15c-.26,8.93.88,17.47,6.68,25,5.65-7.55,6.94-16,6.71-24.95l1.34-.19q1.65,6.61,3.32,13.24l1.3.31c1-3,2.11-5.92,2.77-9s.83-6.26,1.38-10.77C643.3,306.34,644.37,308.88,645.62,311.86Z"/></svg>