<svg width="1440" height="1080" viewBox="0 0 1440 1080" fill="none" xmlns="http://www.w3.org/2000/svg">
<rect width="1440" height="1080" fill="#E5E5E5"/>
<rect width="1440" height="1024" transform="translate(0 29)" fill="white"/>
<g clip-path="url(#clip0)">
<path d="M931.065 864.741C931.065 864.741 910.753 896.694 879.156 877.109C847.559 857.525 873.514 775.066 928.808 799.804C928.808 799.804 896.083 753.421 917.523 701.884C938.964 650.347 959.276 666.839 959.276 666.839C959.276 666.839 933.322 641.07 972.817 562.734C1012.31 484.398 1045.04 452.445 1084.53 464.814C1124.03 477.183 1140.96 604.994 1094.69 669.931C1094.69 669.931 1111.62 650.347 1118.39 669.931C1125.16 689.515 1147.73 763.728 1047.29 819.388C946.863 875.048 931.065 864.741 931.065 864.741Z" fill="#F3E7D9"/>
<path d="M699.733 930.708C713.827 926.987 685.063 804.958 609.457 800.835C533.851 796.712 528.208 829.695 537.236 851.341C537.236 851.341 433.419 737.96 370.225 721.468C307.032 704.976 335.243 735.898 335.243 735.898C335.243 735.898 258.509 718.376 242.711 741.052C226.912 763.728 281.078 838.972 381.51 875.048C481.942 911.124 648.952 944.108 699.733 930.708Z" fill="#F3E7D9"/>
<path d="M831.761 689.515C831.761 689.515 801.293 593.656 813.706 557.58C813.706 557.58 783.238 557.58 808.064 498.828C832.89 440.076 844.174 432.861 861.101 441.107C878.028 449.353 885.927 488.521 862.229 526.658C862.229 526.658 869 502.951 893.826 510.166C918.652 517.381 866.743 662.716 849.816 685.392C832.89 708.068 831.761 689.515 831.761 689.515Z" fill="#F3E7D9"/>
<path d="M699.733 594.687C699.733 594.687 726.387 592.739 732.458 580.257L734.714 579.226C734.714 579.226 740.357 587.472 725.687 594.687C711.017 601.902 695.219 607.056 699.733 594.687Z" fill="#F3E7D9"/>
<path d="M729.072 567.888C729.072 567.888 741.485 580.256 723.43 589.533C705.375 598.81 678.292 604.994 669.264 584.379C660.237 563.765 685.063 546.242 705.375 550.365C725.687 554.488 729.072 567.888 729.072 567.888Z" fill="#992C29"/>
<path d="M555.291 644.162C554.163 647.255 538.364 664.777 554.163 676.115C569.961 687.453 629.87 633.041 601.557 624.166C573.245 615.291 556.42 641.07 555.291 644.162Z" fill="#992C29"/>
<path d="M602.686 639.009C602.686 639.009 602.686 654.47 583.502 664.777C564.319 675.085 558.676 675.085 553.034 673.023C547.392 670.962 548.52 676.115 550.777 678.177C553.034 680.238 557.548 683.33 573.346 677.146C589.145 670.962 606.071 656.531 608.328 648.285C610.585 640.039 609.457 633.855 602.686 639.009Z" fill="#F3E7D9"/>
<path d="M796.52 775.716C796.033 776.469 795.798 777.336 795.843 778.21C796.012 781.034 797.851 785.868 802.613 790.094C807.748 794.619 814.011 803.793 815.466 805.978C815.699 806.316 815.976 806.628 816.29 806.906C817.701 808.112 821.131 815.677 829.222 814.317C841.872 812.173 838.927 801.814 832.1 792.671C825.272 783.529 820.172 771.85 810.388 769.583C802.591 767.738 798.032 773.396 796.52 775.716Z" fill="#C94039"/>
<path d="M796.779 771.974C796.294 772.726 796.926 776.303 796.971 777.128C797.14 779.952 798.98 784.786 803.742 789.012C808.972 793.643 813.33 799.031 816.64 804.958C819.348 810.111 827.01 814.327 834.018 813.204C841.026 812.08 840.1 800.835 833.273 791.558C826.446 782.281 821.345 770.737 811.562 768.469C803.719 766.707 798.28 769.655 796.779 771.974Z" fill="#121721"/>
<path d="M758.412 680.238C758.412 680.238 771.953 708.068 777.596 720.437C783.238 732.806 788.88 754.451 790.008 762.697C791.137 770.943 791.137 774.035 796.779 774.035C802.421 774.035 815.963 781.251 821.605 775.066C827.247 768.882 819.348 748.267 819.348 748.267C819.348 748.267 821.605 673.023 802.421 655.5C778.058 633.247 758.412 667.869 758.412 680.238Z" fill="#273252"/>
<path d="M799.036 704.976L803.55 751.359C801.909 753.335 800.402 755.4 799.036 757.544C797.908 759.605 805.807 762.697 805.807 762.697C805.807 762.697 791.137 774.035 796.779 774.035C802.421 774.035 815.963 781.251 821.605 775.066C827.247 768.882 819.348 748.267 819.348 748.267C819.348 748.267 821.605 673.023 802.421 655.5C778.058 633.247 799.036 692.607 799.036 704.976Z" fill="#1D2538"/>
<path d="M743.336 828.149C743.336 828.149 737.581 836.931 744.306 848.342C751.032 859.752 753.909 876.429 763.49 884.335C773.07 892.241 783.667 893.993 792.322 887.85C800.977 881.706 793.281 860.628 787.515 851.856C781.748 843.085 779.977 833.839 775.102 825.727C770.227 817.615 754.869 815.863 743.336 828.149Z" fill="#121721"/>
<path d="M687.32 582.318C692.962 582.318 757.283 621.486 775.339 634.886C793.394 648.285 806.935 654.47 806.935 664.777C806.935 675.085 802.421 682.3 794.522 686.423C786.623 690.546 779.852 692.607 759.54 682.3C739.228 671.992 706.503 653.439 680.549 643.132C654.595 632.824 653.466 614.271 663.622 597.779C673.778 581.287 687.32 582.318 687.32 582.318Z" fill="#273252"/>
<path d="M775.339 634.886C793.394 648.285 806.935 654.47 806.935 664.777C806.935 675.085 803.55 683.33 795.651 687.453L787.752 676.115L793.394 665.808L744.871 615.302C744.871 615.302 757.283 621.486 775.339 634.886Z" fill="#273252"/>
<path d="M665.879 726.621C666.725 730.672 669.264 742.083 677.164 748.267C685.063 754.451 696.347 770.943 704.246 788.466C709.575 799.829 716.396 810.558 724.558 820.419C724.558 820.419 727.944 833.818 736.971 837.941C745.999 842.064 765.183 835.88 765.183 835.88C765.183 835.88 775.339 832.788 775.339 825.572C775.339 818.357 765.183 799.804 765.183 799.804C765.183 799.804 716.659 693.638 709.889 691.576C703.118 689.515 661.365 704.976 665.879 726.621Z" fill="#273252"/>
<path d="M685.063 745.175C685.909 749.226 717.788 808.05 725.687 814.234C733.586 820.419 735.843 823.511 741.485 823.511C747.127 823.511 751.641 823.511 743.742 825.572C735.843 827.634 727.944 833.818 736.971 837.941C745.999 842.064 765.183 835.88 765.183 835.88C765.183 835.88 775.339 832.788 775.339 825.572C775.339 818.357 765.183 799.804 765.183 799.804C765.183 799.804 716.659 693.638 709.889 691.576C703.118 689.515 680.549 723.529 685.063 745.175Z" fill="#1D2538"/>
<path d="M585.759 616.332C585.759 616.332 588.016 633.855 610.585 662.716C611.443 663.808 621.305 672.116 622.129 673.219C643.13 701.255 663.622 735.898 676.035 742.083C697.306 752.679 721.173 750.329 723.43 727.652C725.687 704.976 706.503 682.3 686.191 646.224C665.879 610.148 646.695 577.164 615.099 590.564C583.502 603.964 585.759 616.332 585.759 616.332Z" fill="#273252"/>
<path d="M695.219 694.669L663.622 699.822L676.035 742.083C676.035 742.083 718.916 764.759 723.43 727.652C726.183 704.976 706.503 682.3 686.191 646.224C665.879 610.148 695.219 694.669 695.219 694.669Z" fill="#1D2538"/>
<path d="M595.656 636.947C598.172 634.886 632.026 639.009 638.796 637.978C645.567 636.947 673.778 621.486 673.778 621.486L682.806 602.933C682.806 602.933 685.063 612.209 685.063 611.179C685.063 610.148 694.09 585.41 694.09 585.41C694.09 585.41 686.191 580.257 680.549 580.257C673.778 580.257 595.656 636.947 595.656 636.947Z" fill="#1D2538"/>
<path d="M538.364 502.951C534.189 499.137 467.103 407.803 457.206 394.321C456.871 393.862 456.364 393.531 455.779 393.39C455.195 393.25 454.575 393.31 454.035 393.559V393.559C453.717 393.704 453.436 393.909 453.212 394.162C452.988 394.414 452.826 394.708 452.737 395.023C452.649 395.338 452.635 395.666 452.697 395.986C452.76 396.306 452.896 396.61 453.099 396.878L536.107 507.074L538.364 502.951Z" fill="#D77D5B"/>
<path d="M459.892 397.651C459.892 397.651 409.721 390.6 393.923 380.293C378.125 369.986 373.611 373.078 381.51 393.693C389.409 414.307 402.95 446.26 402.95 446.26C402.95 446.26 453.731 449.353 472.914 449.353C492.098 449.353 496.849 447.219 496.849 447.219L459.892 397.651Z" fill="#FFACFF"/>
<path d="M417.665 416.781L450.165 420.935L452.433 423.77L418.952 419.935L417.665 416.781Z" fill="#3E4C6F"/>
<path d="M413.806 409.36L459.181 415.225L461.438 418.059L415.093 412.514L413.806 409.36Z" fill="#3E4C6F"/>
<path d="M409.947 402.969L455.322 408.845L457.579 411.669L411.233 406.134L409.947 402.969Z" fill="#3E4C6F"/>
<path d="M469.021 428.872C466.685 428.264 460.727 426.986 458.865 430.779C456.608 435.499 463.277 438.798 465.534 438.798L463.277 440.859C463.277 440.859 467.599 440.663 470.048 438.798C473.49 436.211 474.223 430.232 469.021 428.872Z" fill="#3E4C6F"/>
<path d="M384.895 416.369C386.024 417.4 402.95 446.26 402.95 446.26C402.95 446.26 425.519 435.953 423.263 427.707C421.006 419.461 384.895 416.369 384.895 416.369Z" fill="#665070"/>
<path d="M423.262 427.707C423.262 427.707 411.425 422.007 393.076 420.224C374.728 418.441 337.5 423.584 329.601 426.676C329.601 426.676 296.876 353.494 288.977 347.309C288.977 347.309 318.317 340.094 347.656 345.248C376.996 350.402 388.281 365.863 392.794 375.139C397.308 384.416 424.391 418.43 423.262 427.707Z" fill="#BB83C3"/>
<path d="M360.679 375.717C360.6 378.397 357.214 379.51 353.163 378.19C349.112 376.871 345.975 373.707 346.088 371.078C346.201 368.45 349.473 367.357 353.502 368.604C357.53 369.852 360.758 373.078 360.679 375.717Z" fill="#F3E7D9"/>
<path d="M345.806 399.949L349.327 381.839L366.795 393.847L371.241 365.667L398.042 401.691L345.806 399.949Z" fill="#F3E7D9"/>
<path d="M611.093 454.609C613.587 431.871 560.053 433.799 533.354 440.385C516.834 444.508 500.934 457.774 498.372 465.721C497.492 468.442 494.332 483.676 495.449 491.159C496.657 499.333 513.505 531.75 527.746 525.761C547.279 517.567 608.588 477.358 611.093 454.609Z" fill="#C94039"/>
<path d="M594.595 465.473C594.933 449.61 567.207 436.675 542.743 440.231C514.249 444.354 499.478 461.474 501.396 470.122C503.315 478.77 526.662 484.862 546.534 484.851C566.406 484.841 594.437 472.544 594.595 465.473Z" fill="#F3E7D9"/>
<path d="M540.52 478.296C516.416 472.431 507.467 476.544 507.309 464.999C507.095 449.538 551.251 445.085 561.475 443.818C571.699 442.55 600.203 460.887 597.145 479.244C594.087 497.602 564.623 484.161 540.52 478.296Z" fill="#273252"/>
<path d="M650.984 300.524C650.984 300.524 635.129 275.158 635.129 274.127C635.129 273.096 637.668 259.439 637.668 252.481C637.668 248.358 644.439 234.959 651.209 235.99C657.98 237.02 655.723 238.051 651.209 256.604C649.878 262.098 659.266 246.513 663.622 252.481C667.978 258.449 674.907 255.574 679.42 258.666C683.934 261.758 686.033 279.425 681.677 283.404C677.322 287.382 674.32 299.009 668.869 301.957C663.419 304.905 650.984 300.524 650.984 300.524Z" fill="#F5894E"/>
<path d="M648.952 261.758C653.115 261.058 657.193 259.988 661.128 258.563C665.879 256.604 672.65 262.789 664.751 267.943C656.851 273.096 652.338 273.096 652.338 273.096C652.338 273.096 635.411 277.219 648.952 261.758Z" fill="#F5894E"/>
<path d="M787.752 136.008C787.752 136.008 770.712 185.483 783.746 220.528C796.779 255.574 870.128 197.852 837.403 163.838C804.678 129.823 787.752 136.008 787.752 136.008Z" fill="#665070"/>
<path d="M808.064 103.024C810.321 105.086 836.275 141.162 885.927 133.946C935.578 126.731 958.147 107.147 987.487 108.178C987.487 108.178 969.432 156.623 987.487 207.129C987.487 207.129 958.147 207.129 902.853 220.528C847.559 233.928 818.22 243.205 792.265 229.805C766.311 216.406 801.293 210.221 818.22 198.883C835.146 187.545 835.745 177.949 823.027 158.53C810.309 139.11 808.064 103.024 808.064 103.024Z" fill="#856792"/>
<path d="M842.222 210.582C857.753 210.582 870.343 199.082 870.343 184.896C870.343 170.71 857.753 159.21 842.222 159.21C826.691 159.21 814.101 170.71 814.101 184.896C814.101 199.082 826.691 210.582 842.222 210.582Z" fill="#F7BC4B"/>
<path d="M854.262 180.897C856.244 180.897 857.851 179.429 857.851 177.619C857.851 175.809 856.244 174.341 854.262 174.341C852.281 174.341 850.674 175.809 850.674 177.619C850.674 179.429 852.281 180.897 854.262 180.897Z" fill="#121721"/>
<path d="M830.125 180.897C832.107 180.897 833.713 179.429 833.713 177.619C833.713 175.809 832.107 174.341 830.125 174.341C828.143 174.341 826.536 175.809 826.536 177.619C826.536 179.429 828.143 180.897 830.125 180.897Z" fill="#121721"/>
<path d="M842.831 198.316C846.795 198.316 850.008 195.136 850.008 191.214C850.008 187.292 846.795 184.112 842.831 184.112C838.867 184.112 835.654 187.292 835.654 191.214C835.654 195.136 838.867 198.316 842.831 198.316Z" fill="#121721"/>
<path d="M833.521 169.713C832.111 168.249 827.97 168.043 825.871 170.991" stroke="#121721" stroke-linecap="round" stroke-linejoin="round"/>
<path d="M850.606 169.713C852.005 168.249 856.158 168.043 858.246 170.991" stroke="#121721" stroke-linecap="round" stroke-linejoin="round"/>
<path d="M726.815 368.955L490.383 35.3768C489.905 34.7046 489.596 33.944 489.478 33.1497C489.361 32.3554 489.437 31.5471 489.703 30.7832C489.968 30.0192 490.416 29.3185 491.014 28.7315C491.611 28.1445 492.344 27.6859 493.159 27.3886V27.3886C494.446 26.9178 495.873 26.8734 497.192 27.2631C498.511 27.6528 499.639 28.4521 500.381 29.5222L733.586 364.832L726.815 368.955Z" fill="#7A462F"/>
<path d="M499.997 48.395L510.153 43.2413C511.859 42.9544 513.58 42.7514 515.31 42.6332C526.2 42.2312 538.929 42.726 546.263 46.3335C560.933 53.5487 554.163 63.8561 595.915 74.1635C637.668 84.4709 648.952 84.4709 663.622 77.2557C678.292 70.0405 691.833 45.3028 750.513 59.7332C809.192 74.1635 819.348 90.6553 819.348 90.6553C819.348 90.6553 811.449 143.223 829.504 170.022C829.504 170.022 819.348 151.469 776.467 153.53C733.586 155.592 716.659 164.869 680.549 175.176C656.242 182.113 624.07 182.876 607.2 182.391C599.007 182.154 595.915 187.545 595.915 187.545L499.997 48.395Z" fill="#BB83C3"/>
<path d="M782.854 153.634C782.854 153.634 818.964 153.252 829.504 170.022C840.044 186.792 819.168 199.306 811.449 202.841C803.73 206.376 785.258 212.118 782.877 221.59C782.877 221.59 773.951 209.902 782.877 153.634" fill="#665070"/>
<path d="M941.598 182.581C948.147 169.448 942.965 154.437 930.022 149.052C917.08 143.667 901.279 149.947 894.729 163.08C888.18 176.212 893.363 191.224 906.306 196.609C919.248 201.994 935.049 195.713 941.598 182.581Z" fill="#C94039"/>
<path d="M906.89 179.375C908.714 178.996 909.928 177.631 909.603 176.327C909.278 175.022 907.537 174.272 905.714 174.651C903.891 175.03 902.676 176.394 903.001 177.699C903.326 179.003 905.067 179.754 906.89 179.375Z" fill="#121721"/>
<path d="M912.05 176.248L901.24 172.723" stroke="#121721" stroke-width="2" stroke-linecap="round" stroke-linejoin="round"/>
<path d="M930.005 177.588C931.828 177.209 933.042 175.845 932.717 174.54C932.392 173.236 930.651 172.486 928.828 172.864C927.005 173.243 925.79 174.608 926.115 175.912C926.44 177.217 928.182 177.967 930.005 177.588Z" fill="#121721"/>
<path d="M923.685 175.341L934.495 170.146" stroke="#121721" stroke-width="2" stroke-linecap="round" stroke-linejoin="round"/>
<path d="M926.822 185.947C927.228 183.731 923.662 183.04 919.001 183.525C914.341 184.009 911.452 185.679 911.181 187.524C910.911 189.369 926.415 188.153 926.822 185.947Z" fill="#121721"/>
<path d="M691.01 124.484C696.832 139.451 692.556 153.644 679.003 156.777C661.704 160.746 636.348 145.944 627.241 122.608C618.134 99.2723 632.409 85.6047 653.263 90.7481C669.592 94.7783 685.176 109.528 691.01 124.484Z" fill="#F7BC4B"/>
<path d="M664.096 134.194C668.745 128.329 676.757 133.627 676.757 133.627" stroke="#121721" stroke-width="3" stroke-linecap="round" stroke-linejoin="round"/>
<path d="M678.506 117.382C679.308 119.444 678.563 121.062 676.78 120.969C674.997 120.877 672.74 119.011 671.882 116.846C671.025 114.682 671.882 113.074 673.778 113.28C675.674 113.486 677.694 115.311 678.506 117.382Z" fill="#121721"/>
<path d="M653.105 115.259C654.075 117.753 652.823 119.66 650.239 119.526C647.655 119.392 644.484 117.104 643.468 114.445C642.452 111.785 643.886 109.899 646.628 110.208C648.085 110.485 649.442 111.093 650.574 111.976C651.707 112.859 652.577 113.988 653.105 115.259V115.259Z" fill="#121721"/>
<path d="M749.745 135.142C767.127 135.142 781.218 122.271 781.218 106.395C781.218 90.518 767.127 77.6474 749.745 77.6474C732.364 77.6474 718.273 90.518 718.273 106.395C718.273 122.271 732.364 135.142 749.745 135.142Z" fill="#F7BC4B"/>
<g style="mix-blend-mode:multiply">
<path d="M732.638 90.8409L742.162 95.5823L727.876 98.7363" stroke="#121721" stroke-width="2" stroke-linecap="round" stroke-linejoin="round"/>
</g>
<g style="mix-blend-mode:multiply">
<path d="M766.119 90.8409L756.595 95.5823L770.881 98.7363" stroke="#121721" stroke-width="2" stroke-linecap="round" stroke-linejoin="round"/>
</g>
<path d="M766.311 102.292C755.153 99.9256 743.529 100.092 732.458 102.777C731.368 103.036 730.424 103.657 729.81 104.519C729.196 105.381 728.957 106.421 729.14 107.436C730.268 114.744 738.619 124.752 750.095 124.752C761.572 124.752 769.132 115.218 769.933 106.776C770.053 105.75 769.748 104.721 769.077 103.891C768.406 103.061 767.419 102.49 766.311 102.292V102.292Z" fill="#121721"/>
<path d="M734.714 118.207C736.434 115.854 738.796 113.951 741.566 112.686C744.336 111.42 747.42 110.836 750.513 110.992C761.38 111.445 765.487 117.176 765.487 117.176C765.487 117.176 762.034 124.072 751.641 124.67C741.248 125.268 734.714 118.207 734.714 118.207Z" fill="#EE5D4F"/>
<path opacity="0.46" d="M499.997 48.395L510.153 43.2413C511.859 42.9544 513.58 42.7514 515.31 42.6332C526.2 42.2312 538.929 42.726 546.263 46.3335C560.933 53.5487 554.163 63.8561 595.915 74.1635C637.668 84.4709 648.952 84.4709 663.622 77.2557C678.292 70.0406 594.46 181.36 594.46 181.36L499.997 48.395Z" fill="#FFACFF"/>
<path d="M654.685 252.286C654.685 252.286 650.013 265.994 655.892 268.582C661.771 271.169 662.663 262.047 662.663 262.047C662.663 262.047 661.286 268.118 662.844 272.169C664.401 276.219 667.12 275.209 669.287 271.138C671.454 267.066 669.513 270.107 669.513 270.107C669.513 270.107 667.673 278.209 672.638 278.209C677.604 278.209 682.411 261.861 679.556 258.388C676.701 254.914 676.881 255.563 672.785 256.254C672.785 256.254 669.298 251.708 664.288 253.316C664.288 253.316 662.787 248.565 654.696 252.286" fill="#F5894E"/>
<path d="M652.338 284.434C652.338 284.434 657.98 272.993 655.181 269.437C655.181 269.437 662.494 276.188 652.338 284.434Z" fill="#CC6D3D"/>
<path d="M648.952 261.758C653.115 261.058 657.193 259.988 661.128 258.563C665.879 256.604 672.65 262.789 664.751 267.943C656.851 273.096 652.338 273.096 652.338 273.096C652.338 273.096 635.411 277.219 648.952 261.758Z" fill="#CC6D3D"/>
<path d="M646.695 261.758C650.858 261.058 654.936 259.988 658.871 258.563C663.622 256.604 670.393 262.789 662.494 267.943C658.516 270.435 654.745 273.191 651.209 276.188C651.209 276.188 633.154 277.219 646.695 261.758Z" fill="#F5894E"/>
<path d="M645.567 297.257C647.508 302.606 650.555 297.628 660.541 298.37C668.847 298.978 675.211 302.215 676.667 297.731C678.371 292.299 672.086 292.794 659.029 292.742C650.645 292.68 643.581 291.897 645.567 297.257Z" fill="#F3E7D9"/>
<path d="M664.683 406.402C658.049 404.919 652.114 401.526 647.756 396.723C642.114 390.374 643.513 384.035 644.788 374.14C647.316 354.463 645.116 363.121 643.209 349.495C640.782 332.085 636.743 300.019 652.586 297.741C672.04 294.907 676.577 296.556 678.382 302.276C680.188 307.997 677.152 305.874 678.382 309.986C679.612 314.099 682.806 353.37 684.521 362.028C686.236 370.687 685.334 375.541 685.334 375.541C685.334 375.541 686.383 385.55 686.338 390.879C686.293 396.208 685.221 408.638 664.683 406.402Z" fill="#C94039"/>
<path d="M664.615 406.896C664.615 406.896 675.189 389.023 676.058 381.932C677.276 371.934 664.536 307.636 664.536 307.636C664.536 307.636 671.42 288.537 678.416 302.276C681.158 307.667 680.019 332.261 681.249 336.373C682.479 340.486 682.84 353.37 684.555 362.028C686.27 370.687 685.367 375.541 685.367 375.541C685.367 375.541 686.417 385.55 686.372 390.879C686.327 396.208 685.142 409.154 664.615 406.896Z" fill="#992C29"/>
<path d="M675.493 372.408L667.922 350.855L658.149 336.816C658.149 336.816 675.561 346.722 677.513 356.091C678.707 361.59 678.001 367.292 675.493 372.408V372.408Z" fill="#992C29"/>
<path d="M649.155 493.571C642.103 494.128 619.917 462.072 619.917 449.775C619.917 444.436 632.782 429.49 632.782 429.49L633.91 424.151C634.835 420.111 638.796 394.723 643.31 390.6C647.824 386.478 654.595 393.693 665.879 393.693C677.164 393.693 686.936 378.665 686.575 394.239C686.214 409.813 673.237 434.026 671.837 446.013C670.438 458.001 656.378 492.994 649.155 493.571Z" fill="#273252"/>
<path d="M649.155 493.571C642.103 494.128 619.917 462.072 619.917 449.775C619.917 444.436 635.242 451.837 639.101 452.115C642.96 452.393 656.671 442.333 656.671 442.333L652.8 436.623C652.8 436.623 654.595 393.693 665.879 393.693C677.164 393.693 686.936 378.665 686.575 394.239C686.214 409.813 673.237 434.026 671.837 446.013C670.438 458.001 656.378 492.994 649.155 493.571Z" fill="#1D2538"/>
<path d="M698.604 572.011C696.347 575.103 696.347 577.164 700.861 578.195C705.375 579.226 704.246 574.072 714.402 573.041C720.733 572.402 728.79 576.999 731.329 581.287C732.864 583.885 728.779 587.606 731.329 586.441C738.1 583.349 739.228 572.011 723.43 567.888C718.982 566.65 714.261 566.474 709.718 567.376C705.174 568.279 700.96 570.229 697.476 573.041" fill="#F3E7D9"/>
<path d="M547.584 473.111C547.584 473.111 565.831 458.969 601.557 452.496C612.842 450.435 631.405 462.422 644.439 489.603C657.472 516.784 689.577 575.154 689.577 575.154C689.577 575.154 665.1 605.747 636.539 623.599C615.358 636.834 589.889 639.905 581.245 634.937C560.933 623.218 518.368 490.51 547.584 473.111Z" fill="#F7BC4B"/>
<path d="M598.093 461.897C601.411 468.957 593.771 482.254 583.288 486.366C572.805 490.479 556.442 484.068 553.113 477.007C549.784 469.947 561.757 465.844 572.218 461.722C582.679 457.599 594.787 454.836 598.093 461.897Z" fill="#F5894E"/>
<path d="M642.182 590.719L628.132 528.586L598.477 458.341C612.266 456.279 639.586 470.988 652.642 498.168C665.699 525.349 690.242 575.103 690.242 575.103L682.343 590.564L632.026 633.855L583.502 636.947L598.928 633.979C598.928 633.979 628.2 626.763 632.556 621.744C641.437 611.436 655.576 578.308 655.576 578.308L642.182 590.719Z" fill="#CE9436"/>
<path d="M599.707 458.093C601.783 451.239 610.585 447.291 617.356 447.291C624.126 447.291 613.97 447.291 636.539 468.937C642.441 474.595 650.171 479.543 654.042 485.429C682.874 529.534 716.287 540.058 723.43 547.273C731.532 555.519 740.831 573.845 734.714 586.441C731.916 592.192 743.742 570.98 718.916 566.857C708.929 565.197 697.476 573.041 697.476 573.041C686.191 568.918 658.883 545.572 648.772 524.287C643.57 513.341 630.897 490.984 619.613 477.183C608.915 464.154 599.301 459.371 599.707 458.093Z" fill="#C94039"/>
<path d="M599.707 458.093C601.783 451.239 610.585 447.291 617.356 447.291C624.126 447.291 613.97 447.291 636.539 468.937C642.441 474.595 650.171 479.543 654.042 485.429C682.874 529.534 716.287 540.058 723.43 547.273C731.532 555.519 740.831 573.845 734.714 586.441C731.916 592.192 743.742 570.98 718.916 566.857L707.857 546.716C696.573 542.593 670.359 523.071 670.359 523.071C670.359 523.071 630.897 490.984 619.613 477.183C608.915 464.154 599.301 459.371 599.707 458.093Z" fill="#992C29"/>
<path d="M585.195 456.052C603.623 461.67 612.458 513.341 604.379 515.743C596.299 518.144 545.564 475.832 555.855 465.329" stroke="#992C29" stroke-miterlimit="10"/>
<path d="M607.702 525.17C609.293 524.725 609.825 522.109 608.892 519.328C607.958 516.547 605.911 514.653 604.32 515.099C602.73 515.545 602.197 518.16 603.131 520.942C604.064 523.723 606.111 525.616 607.702 525.17Z" fill="#29ABE2"/>
<path d="M594.155 451.713C600.858 449.136 603.916 450.146 608.667 451.373C613.417 452.599 617.175 456.805 625.3 467.968C633.425 479.131 646.075 512.733 642.227 514.289C638.379 515.846 625.627 486.604 617.401 477.183C609.175 467.762 587.452 454.29 594.155 451.713Z" fill="#F3E7D9"/>
<path d="M577.86 648.285C586.007 645.801 590.273 637.978 582.374 639.009C574.475 640.039 572.218 645.193 564.319 650.347C556.42 655.501 546.636 664.427 551.906 674.054C554.163 678.177 555.291 678.177 558.676 671.992C562.062 665.808 564.319 652.408 577.86 648.285Z" fill="#F3E7D9"/>
<path d="M547.268 477.296C555.37 479.986 573.222 511.877 579.62 529.864C586.019 547.85 582.159 576.432 586.086 587.812C590.013 599.191 591.605 635.989 589.077 639.174C588.073 640.441 569.239 645.502 562.062 652.377C555.481 658.891 551.505 667.246 550.777 676.084C550.777 676.084 511.519 645.976 531.594 586.41C530.465 562.703 503.777 511.949 505.639 503.951C507.501 495.952 539.166 474.595 547.268 477.296Z" fill="#992C29"/>
<path d="M556.916 490.108C565.03 492.798 573.233 511.877 579.62 529.895C586.007 547.912 582.159 576.463 586.086 587.843C590.013 599.222 591.605 636.02 589.077 639.204C587.226 641.544 581.245 597.779 581.245 597.779C581.245 597.779 569.555 595.522 568.336 587.101C567.749 582.978 570.288 530.08 570.288 530.08C570.288 530.08 548.814 487.407 556.916 490.108Z" fill="#C94039"/>
<path d="M583.841 541.429C586.357 536.904 582.983 529.565 577.623 518.371C572.263 507.177 564.319 488.799 554.591 478.955C544.379 468.648 521.618 479.904 531.91 484.109C542.54 488.449 554.354 496.385 565.436 513.3C577.758 532.111 581.336 545.943 583.841 541.429Z" fill="#F3E7D9"/>
<path d="M564.059 611.746L568.46 612.776C568.46 612.776 565.425 628.444 551.714 632.226L550.348 629.371C550.348 629.371 560.471 625.836 564.059 611.746Z" fill="#F3E7D9"/>
<path d="M572.838 535.275C572.838 535.275 583.198 561.353 565.188 571.299C569.395 559.635 571.966 547.53 572.838 535.275V535.275Z" fill="#C94039"/>
<path d="M686.191 549.334L687.32 553.241C687.32 553.241 692.962 556.55 712.145 554.488L711.017 550.365C711.017 550.365 696.347 555.519 686.191 549.334Z" fill="#F3E7D9"/>
<path d="M805.581 355.689C826.783 355.689 843.971 339.99 843.971 320.624C843.971 301.257 826.783 285.558 805.581 285.558C784.379 285.558 767.191 301.257 767.191 320.624C767.191 339.99 784.379 355.689 805.581 355.689Z" fill="#29ABE2"/>
<path d="M780.214 323.231L801.756 303.616L832.235 312.172" stroke="#F3E7D9" stroke-width="5" stroke-linecap="round" stroke-linejoin="round"/>
<path d="M822.971 312.945C822.905 311.874 822.474 310.848 821.74 310.011C821.006 309.174 820.004 308.568 818.874 308.275L805.536 304.616C804.418 304.315 803.232 304.298 802.105 304.567C800.977 304.836 799.952 305.38 799.138 306.142L790.11 314.604C789.279 315.368 788.731 316.35 788.543 317.413C788.355 318.476 788.536 319.567 789.061 320.531L799.036 338.167C799.686 339.248 800.714 340.099 801.955 340.585C803.197 341.07 804.58 341.163 805.886 340.847L819.156 337.868C820.507 337.591 821.712 336.898 822.569 335.905C823.426 334.912 823.883 333.68 823.862 332.415L822.971 312.945ZM808.696 326.911C807.484 327.115 806.233 326.99 805.098 326.551C803.963 326.113 802.993 325.381 802.309 324.444C801.624 323.508 801.255 322.41 801.246 321.284C801.238 320.159 801.591 319.055 802.261 318.111C802.931 317.166 803.889 316.422 805.018 315.969C806.146 315.516 807.395 315.375 808.61 315.564C809.825 315.752 810.953 316.261 811.854 317.029C812.756 317.796 813.392 318.788 813.683 319.881C814.041 321.418 813.717 323.021 812.782 324.339C811.847 325.657 810.377 326.582 808.696 326.911V326.911Z" fill="#F3E7D9"/>
<path opacity="0.5" d="M838.532 310.502C838.532 323.345 775.485 323.345 775.485 310.502C775.485 297.659 789.591 287.248 807.003 287.248C824.415 287.248 838.532 297.659 838.532 310.502Z" fill="#FFFCF3"/>
<path d="M754.812 397.774L769.696 424.687" stroke="#F7BC4B" stroke-width="3" stroke-linecap="round" stroke-linejoin="round"/>
<path d="M743.708 428.058L771.536 409.37" stroke="#F7BC4B" stroke-width="3" stroke-linecap="round" stroke-linejoin="round"/>
<path d="M738.98 419.647L766.808 400.97" stroke="#F7BC4B" stroke-width="3" stroke-linecap="round" stroke-linejoin="round"/>
<path d="M743.009 405.907L757.893 432.82" stroke="#F7BC4B" stroke-width="3" stroke-linecap="round" stroke-linejoin="round"/>
<path d="M551.014 210.18L476.018 248.781L534.945 272.705L551.014 210.18Z" fill="#33A86D"/>
<path opacity="0.5" d="M551.014 210.18L522.149 226.218L534.945 272.705L551.014 210.18Z" fill="#FFFCF3"/>
<path d="M551.014 210.18L547.02 214.313L502.502 259.377L505.775 260.47L551.014 210.18Z" fill="#288453"/>
<path d="M441.024 153.427C441.961 155.211 449.127 169.332 444.895 177.98C444.8 178.169 444.775 178.381 444.822 178.584C444.869 178.788 444.987 178.972 445.158 179.109C445.329 179.247 445.544 179.331 445.771 179.348C445.998 179.366 446.225 179.316 446.418 179.206C454.622 174.527 472.215 162.127 471.684 141.996C471.007 115.991 440.731 144.058 440.923 153.025C440.923 153.165 440.957 153.302 441.024 153.427V153.427Z" fill="#F7BC4B"/>
<path d="M445.493 107.034H421.322C406.857 107.034 395.13 117.745 395.13 130.957V141.172C395.13 154.384 406.857 165.095 421.322 165.095H445.493C459.958 165.095 471.684 154.384 471.684 141.172V130.957C471.684 117.745 459.958 107.034 445.493 107.034Z" fill="#F7BC4B"/>
<path opacity="0.5" d="M416.097 124.443C414.892 123.777 413.914 122.818 413.271 121.674C412.627 120.53 412.344 119.246 412.453 117.963C412.562 116.681 413.058 115.452 413.887 114.412C414.716 113.372 415.844 112.563 417.146 112.074C428.589 107.889 447.219 111.291 451.609 111.765C464.744 113.208 467.554 127.226 467.216 140.986C467.186 142.168 466.816 143.323 466.143 144.333C465.47 145.343 464.519 146.174 463.383 146.742C462.248 147.31 460.969 147.595 459.675 147.569C458.381 147.543 457.117 147.207 456.01 146.594L416.097 124.443Z" fill="#FFFCF3"/>
<path d="M318.057 292.814C341.522 292.814 360.543 275.44 360.543 254.007C360.543 232.574 341.522 215.2 318.057 215.2C294.593 215.2 275.571 232.574 275.571 254.007C275.571 275.44 294.593 292.814 318.057 292.814Z" fill="#29ABE2"/>
<path d="M308.251 280.559C304.572 282.497 300.736 281.682 298.095 277.539L292.983 268.695C290.365 264.572 290.568 260.377 294.247 258.388C297.926 256.45 301.548 256.903 304.166 261.047L309.278 269.891C311.918 274.127 311.93 278.621 308.251 280.559Z" fill="#F3E7D9"/>
<path d="M305.825 259.748C304.403 257.573 305.328 255.203 305.926 252.719C306.682 249.575 308.059 242.411 307.506 241.174C306.581 239.051 301.864 230.867 302.88 228.599C303.895 226.332 310.181 225.837 312.844 228.29C316.082 231.279 316.082 232.722 317.256 236.969C318.238 240.566 317.865 241.288 321.77 240.143C326.284 238.814 332.671 238.247 334.634 237.464C335.291 237.214 335.997 237.091 336.708 237.103C337.42 237.114 338.12 237.26 338.767 237.531C339.413 237.802 339.992 238.193 340.465 238.678C340.938 239.163 341.297 239.732 341.518 240.35C341.757 240.848 341.852 241.395 341.793 241.936C341.733 242.478 341.522 242.997 341.179 243.442C341.893 243.811 342.514 244.315 343 244.919C343.486 245.523 343.827 246.214 344 246.946C344.381 248.575 344.184 250.272 343.436 251.791C343.436 251.791 347.386 253.337 346.031 258.491C346.031 258.491 348.638 263.201 345.242 265.912C342.657 267.973 337.997 269.695 332.377 271.89C322.898 275.601 316.297 275.756 314.435 274.055C312.573 272.354 305.825 259.748 305.825 259.748Z" fill="#F3E7D9"/>
<path opacity="0.5" d="M349.259 248.977C349.259 265.469 283.132 265.469 283.132 248.977C283.132 240.967 286.615 233.286 292.816 227.622C299.016 221.958 307.426 218.776 316.195 218.776C324.964 218.776 333.374 221.958 339.575 227.622C345.775 233.286 349.259 240.967 349.259 248.977V248.977Z" fill="#FFFCF3"/>
<path d="M487.358 326.293C487.884 327.943 488.044 329.672 487.829 331.38C487.614 333.087 487.028 334.738 486.106 336.237C485.184 337.735 483.944 339.05 482.459 340.105C480.973 341.16 479.273 341.934 477.456 342.382C475.639 342.83 473.743 342.942 471.878 342.712C470.013 342.482 468.218 341.915 466.596 341.043C464.974 340.172 463.559 339.014 462.433 337.637C461.307 336.26 460.493 334.691 460.039 333.023" stroke="#F7BC4B" stroke-width="3" stroke-miterlimit="10"/>
<path d="M460.016 291.732C460.016 291.732 472.023 284.64 481.265 300.504C484.063 305.307 486.004 308.749 489.593 314.645C491.218 317.294 498.034 323.262 498.034 323.262L471.278 329.859" stroke="#F7BC4B" stroke-width="3" stroke-miterlimit="10"/>
<path d="M464.947 290.516C464.947 290.516 450.661 289.908 451.406 307.863C451.632 313.295 451.857 317.14 451.993 323.901C452.049 326.942 449.431 335.239 449.431 335.239L476.198 328.653" stroke="#F7BC4B" stroke-width="3" stroke-miterlimit="10"/>
<path d="M321.16 528.503C333.901 545.428 358.004 549.901 375.71 540.047C393.065 530.389 400.039 509.259 390.887 491.273C380.822 471.524 355.149 462.525 334.059 473.235C312.471 484.192 307.1 509.857 321.16 528.503Z" fill="#EE5D4F"/>
<path opacity="0.5" d="M351.617 496.158C351.617 496.158 392.704 508.651 384.715 492.963C375.924 475.729 353.536 467.906 335.142 477.183C316.308 486.779 351.617 496.158 351.617 496.158Z" fill="#FFFCF3"/>
<g style="mix-blend-mode:color-dodge">
<path d="M329.534 508.156C329.398 493.829 347.408 498.725 349.71 499.416C350.229 497.251 354.653 480.8 367.765 488.078C386.949 498.849 369.65 524.679 367.596 527.606L367.675 527.74H367.495C367.465 527.791 367.431 527.839 367.393 527.885L367.314 527.751C363.522 528.06 329.748 529.637 329.534 508.156Z" fill="#FFFCF3"/>
</g>
<path d="M571.699 544.985L628.065 523.916C630.514 523.003 633.256 522.989 635.716 523.879C638.177 524.768 640.166 526.491 641.268 528.689L663.295 572.67C663.863 573.8 664.178 575.022 664.223 576.264C664.268 577.507 664.041 578.745 663.555 579.906C663.07 581.067 662.336 582.129 661.396 583.028C660.456 583.927 659.329 584.646 658.081 585.142L597.653 609.241C596.361 609.759 594.965 610.027 593.553 610.029C592.142 610.031 590.745 609.766 589.451 609.251C588.157 608.736 586.994 607.982 586.034 607.037C585.074 606.091 584.339 604.975 583.875 603.757L565.898 556.735C565.036 554.47 565.156 551.99 566.235 549.804C567.314 547.618 569.269 545.893 571.699 544.985V544.985Z" fill="#F3E7D9"/>
<path d="M615.449 585.596C627.122 585.596 636.585 576.952 636.585 566.29C636.585 555.628 627.122 546.984 615.449 546.984C603.776 546.984 594.313 555.628 594.313 566.29C594.313 576.952 603.776 585.596 615.449 585.596Z" fill="#29ABE2"/>
<path d="M606.726 558.106L615.945 578.216L625.819 561.93L606.726 558.106Z" fill="#C94039"/>
<g opacity="0.5">
<path opacity="0.5" d="M588.366 541.903L628.99 526.72C630.756 526.062 632.731 526.053 634.504 526.695C636.277 527.336 637.71 528.579 638.503 530.163L654.38 561.847C656.084 565.28 584.721 543.263 588.366 541.903Z" fill="#FFFCF3"/>
</g>
<path d="M547.979 443.385L562.581 478.43C562.581 478.43 567.806 484.614 579.327 481.027C590.848 477.44 590.51 468.37 590.51 468.37L574.576 429.047L547.979 443.385Z" fill="#F5894E"/>
<path d="M547.979 443.385C547.979 443.385 567.049 463.999 573.798 467.092C580.546 470.184 589.145 466.875 589.145 466.875L575.987 428.738L547.979 443.385Z" fill="#CC6D3D"/>
<path d="M526.064 437.777C544.571 455.3 554.953 456.846 554.953 456.846C592.293 447.642 598.082 417.152 587.678 397.063C577.747 375.923 573.064 370.769 547.11 379.128C510.932 390.755 509.578 422.182 526.064 437.777Z" fill="#1D2538"/>
<path d="M526.064 437.777C544.571 455.29 553.034 449.353 553.034 449.353C590.386 440.158 598.082 417.152 587.655 397.053C577.725 375.912 575.242 367.017 544.526 375.201C501.836 386.57 509.578 422.182 526.064 437.777Z" fill="#3E4C6F"/>
<path d="M523.751 438.849C539.549 453.785 561.227 431.304 561.227 431.304C565.436 426.316 560.031 407.597 556.273 395.28C553.034 384.663 555.415 372.758 525.692 386.426C499.275 398.578 509.702 425.553 523.751 438.849Z" fill="#1D2538"/>
<path d="M547.967 381.685C547.967 381.685 571.101 384.179 575.716 386.333C580.331 388.487 597.676 422.935 596.197 436.242C594.73 449.373 554.591 461.577 542.359 456.63C532.338 452.589 531.368 445.405 525.286 435.067C518.876 424.172 524.394 413.72 523.491 408.948C521.923 400.784 547.967 381.685 547.967 381.685Z" fill="#CC6D3D"/>
<path d="M516.405 437.077C520.693 442.993 527.791 446.838 530.567 445.518C533.343 444.199 532.158 438.303 527.858 432.325C523.559 426.346 517.781 422.584 515.005 423.965C512.229 425.347 512.117 431.15 516.405 437.077Z" fill="#CC6D3D"/>
<path d="M575.084 392.549C582.893 394.095 600.474 431.48 591.808 440.55C583.141 449.621 572.737 451.394 562.637 447.899C553.79 444.807 546.895 417.09 553.61 408.02C561.735 396.919 567.264 391.013 575.084 392.549Z" fill="#F5894E"/>
<path d="M519.057 402.341C519.057 402.341 528.028 418.503 527.949 424.254L526.188 433.325L514.52 410.02L519.057 402.341Z" fill="#1D2538"/>
<path d="M572.285 372.831C572.285 372.831 567.941 381.685 545.406 388.591C534.223 392.013 526.019 398.62 520.219 399.238C505.955 400.743 520.275 370.985 543.002 363.245C565.977 355.432 572.285 372.831 572.285 372.831Z" fill="#1D2538"/>
<path d="M543.036 362.946C525.06 369.852 511.338 391.157 522.826 389.941C526.087 389.59 531.233 388.91 537.36 387.735C547.234 383.179 556.318 375.088 556.318 375.088C557.255 379.881 552.12 383.437 546.072 385.911C551.802 384.597 557.452 383.007 562.998 381.149C572.432 377.953 573.606 378.108 573.233 375.016C572.5 368.718 562.457 355.494 543.036 362.946Z" fill="#3E4C6F"/>
<path d="M543.803 410.185C544.638 412.669 546.286 413.4 547.651 413.019C549.017 412.638 549.57 411.287 548.78 408.793C547.99 406.299 546.162 404.598 544.796 404.979C543.431 405.361 542.968 407.67 543.803 410.185Z" fill="#34283A"/>
<path d="M566.7 404C567.535 406.484 569.182 407.216 570.548 406.835C571.913 406.453 572.466 405.103 571.676 402.619C570.886 400.135 569.058 398.424 567.704 398.805C566.35 399.187 565.865 401.516 566.7 404Z" fill="#34283A"/>
<path d="M537.236 404.093C537.384 404.042 537.515 403.957 537.614 403.844C537.713 403.732 537.778 403.597 537.8 403.454V403.454C537.8 403.268 538.613 398.908 542.562 398.671C542.678 398.665 542.791 398.637 542.895 398.591C542.999 398.544 543.092 398.479 543.169 398.4C543.245 398.32 543.304 398.228 543.341 398.127C543.378 398.027 543.394 397.921 543.386 397.816C543.371 397.601 543.265 397.401 543.089 397.258C542.914 397.115 542.684 397.042 542.449 397.053C538.15 397.311 536.378 401.176 536.051 403.237C536.019 403.449 536.078 403.664 536.218 403.835C536.357 404.007 536.565 404.122 536.796 404.155C536.946 404.166 537.096 404.144 537.236 404.093V404.093Z" fill="#34283A"/>
<path d="M574.475 393.363C574.557 393.337 574.633 393.299 574.7 393.249C574.885 393.121 575.007 392.93 575.039 392.72C575.071 392.509 575.01 392.296 574.87 392.126C572.421 389.137 568.099 389.869 566.226 390.673C566.024 390.762 565.867 390.919 565.787 391.11C565.708 391.302 565.711 391.514 565.797 391.703C565.895 391.888 566.066 392.032 566.275 392.106C566.484 392.181 566.716 392.18 566.925 392.105C567.106 392.023 571.225 390.374 573.425 393.054C573.535 393.207 573.7 393.321 573.89 393.377C574.081 393.433 574.287 393.428 574.475 393.363V393.363Z" fill="#34283A"/>
<path d="M448.799 574.618C448.799 574.618 490.112 517.237 497.864 508.074C505.763 498.725 516.123 490.479 529.043 495.973C541.964 501.467 552.82 518.309 542.28 531.018C531.74 543.727 508.144 575.979 500.132 581.998C492.12 588.018 477.823 600.871 477.642 595.068C477.462 589.265 448.799 574.618 448.799 574.618Z" fill="#1D2538"/>
<path d="M448.799 574.618C446.892 572.34 460.637 557.941 474.043 541.088C484.436 528.019 494.479 512.073 497.864 508.105C505.763 498.756 524.462 488.047 523.694 501.034C522.487 521.309 483.07 530.925 490.371 560.703C495.551 581.823 452.196 578.659 448.799 574.618Z" fill="#273252"/>
<path d="M511.925 521.02C511.925 521.02 494.784 526.452 486.151 541.635C477.518 556.818 511.925 521.02 511.925 521.02Z" fill="#273252"/>
<path d="M544.007 576.134C544.007 576.134 528.208 574.072 503.382 570.98C478.557 567.888 468.4 552.427 455.988 561.703C443.575 570.98 440.189 591.595 450.345 599.841C460.501 608.086 498.869 611.179 518.052 614.271C537.236 617.363 544.007 625.609 548.52 612.209C553.034 598.81 550.777 581.287 544.007 576.134Z" fill="#C94039"/>
<path d="M544.007 576.134C544.007 576.134 528.208 574.072 503.382 570.98C478.557 567.888 531.075 588.307 531.075 588.307C531.075 588.307 544.007 625.609 548.52 612.209C553.034 598.81 550.777 581.287 544.007 576.134Z" fill="#992C29"/>
<path d="M552.267 581.535C552.267 581.535 543.476 579.092 540.554 589.657C537.631 600.222 541.095 612.56 547.166 614.116C553.237 615.673 552.267 609.169 552.267 609.169C552.267 609.169 548.362 607.54 548.362 600.222C548.362 592.904 555.201 585.596 555.201 585.596L552.267 581.535Z" fill="#F3E7D9"/>
<path d="M547.595 604.417C544.21 599.006 545.823 593.873 547.493 586.977C549.581 578.391 553.914 569.939 556.419 564.795C560.933 555.519 569.464 556.096 574.599 554.869C583.198 552.808 586.538 553.241 586.538 553.241C586.538 553.241 593.241 555.488 592.011 557.529C590.781 559.57 580.884 559.281 581.076 559.59C581.268 559.899 583.073 559.199 585.206 560.312C585.942 560.765 586.542 561.381 586.95 562.101C587.358 562.821 587.562 563.624 587.542 564.435C587.616 565.286 587.387 566.135 586.888 566.857C587.538 566.732 588.216 566.83 588.792 567.132C589.369 567.435 589.803 567.92 590.013 568.496C590.553 569.87 590.854 571.314 590.905 572.773C590.676 574.085 590.141 575.336 589.336 576.443C589.336 576.443 590.905 575.412 592.022 578.071C593.139 580.731 591.514 584.122 591.413 584.73C590.284 591.945 571.101 595.676 571.101 595.676C570.477 597.983 569.336 600.146 567.751 602.03C566.167 603.914 564.172 605.478 561.892 606.623C553.993 610.746 553.553 610.519 551.917 609.076C550.381 607.599 548.938 606.044 547.595 604.417V604.417Z" fill="#F5894E"/>
</g>
<defs>
<clipPath id="clip0">
<rect width="960" height="1080" fill="white" transform="translate(240.182)"/>
</clipPath>
</defs>
</svg>
